<mxfile host="app.diagrams.net" agent="Mozilla/5.0 (Windows NT 10.0; Win64; x64) AppleWebKit/537.36 (KHTML, like Gecko) Chrome/135.0.0.0 Safari/537.36 Edg/135.0.0.0" version="26.2.14">
  <diagram name="第 1 页" id="IJGbnoU1Glra_pV7yRjn">
    <mxGraphModel dx="768" dy="393" grid="1" gridSize="10" guides="1" tooltips="1" connect="1" arrows="1" fold="1" page="1" pageScale="1" pageWidth="827" pageHeight="1169" math="0" shadow="0">
      <root>
        <mxCell id="0" />
        <mxCell id="1" parent="0" />
        <mxCell id="221bUUAiKaxn2Sf912eD-11" style="edgeStyle=orthogonalEdgeStyle;rounded=0;orthogonalLoop=1;jettySize=auto;html=1;exitX=1;exitY=0.5;exitDx=0;exitDy=0;entryX=0;entryY=0.5;entryDx=0;entryDy=0;" edge="1" parent="1" source="221bUUAiKaxn2Sf912eD-4" target="221bUUAiKaxn2Sf912eD-7">
          <mxGeometry relative="1" as="geometry" />
        </mxCell>
        <mxCell id="221bUUAiKaxn2Sf912eD-4" value="Peer A" style="ellipse;whiteSpace=wrap;html=1;" vertex="1" parent="1">
          <mxGeometry x="60" y="150" width="120" height="50" as="geometry" />
        </mxCell>
        <mxCell id="221bUUAiKaxn2Sf912eD-12" style="edgeStyle=orthogonalEdgeStyle;rounded=0;orthogonalLoop=1;jettySize=auto;html=1;exitX=1;exitY=0.5;exitDx=0;exitDy=0;" edge="1" parent="1" source="221bUUAiKaxn2Sf912eD-5">
          <mxGeometry relative="1" as="geometry">
            <mxPoint x="260" y="255.09523809523807" as="targetPoint" />
          </mxGeometry>
        </mxCell>
        <mxCell id="221bUUAiKaxn2Sf912eD-5" value="Peer B" style="ellipse;whiteSpace=wrap;html=1;" vertex="1" parent="1">
          <mxGeometry x="60" y="230" width="120" height="50" as="geometry" />
        </mxCell>
        <mxCell id="221bUUAiKaxn2Sf912eD-14" style="edgeStyle=orthogonalEdgeStyle;rounded=0;orthogonalLoop=1;jettySize=auto;html=1;exitX=1;exitY=0.5;exitDx=0;exitDy=0;entryX=0;entryY=0.5;entryDx=0;entryDy=0;" edge="1" parent="1" source="221bUUAiKaxn2Sf912eD-6" target="221bUUAiKaxn2Sf912eD-7">
          <mxGeometry relative="1" as="geometry" />
        </mxCell>
        <mxCell id="221bUUAiKaxn2Sf912eD-6" value="Peer C" style="ellipse;whiteSpace=wrap;html=1;" vertex="1" parent="1">
          <mxGeometry x="60" y="310" width="120" height="50" as="geometry" />
        </mxCell>
        <mxCell id="221bUUAiKaxn2Sf912eD-21" value="" style="edgeStyle=orthogonalEdgeStyle;rounded=0;orthogonalLoop=1;jettySize=auto;html=1;" edge="1" parent="1" source="221bUUAiKaxn2Sf912eD-7" target="221bUUAiKaxn2Sf912eD-15">
          <mxGeometry relative="1" as="geometry">
            <Array as="points">
              <mxPoint x="420" y="240" />
              <mxPoint x="420" y="240" />
            </Array>
          </mxGeometry>
        </mxCell>
        <mxCell id="221bUUAiKaxn2Sf912eD-7" value="WOOM" style="rounded=0;whiteSpace=wrap;html=1;" vertex="1" parent="1">
          <mxGeometry x="260" y="225" width="120" height="60" as="geometry" />
        </mxCell>
        <mxCell id="221bUUAiKaxn2Sf912eD-15" value="Redis" style="rounded=0;whiteSpace=wrap;html=1;" vertex="1" parent="1">
          <mxGeometry x="470" y="225" width="120" height="60" as="geometry" />
        </mxCell>
        <mxCell id="221bUUAiKaxn2Sf912eD-16" value="Live777()SFU" style="rounded=0;whiteSpace=wrap;html=1;" vertex="1" parent="1">
          <mxGeometry x="260" y="360" width="120" height="60" as="geometry" />
        </mxCell>
        <mxCell id="221bUUAiKaxn2Sf912eD-22" value="" style="edgeStyle=orthogonalEdgeStyle;rounded=0;orthogonalLoop=1;jettySize=auto;html=1;" edge="1" parent="1">
          <mxGeometry relative="1" as="geometry">
            <mxPoint x="470" y="270" as="sourcePoint" />
            <mxPoint x="380" y="270" as="targetPoint" />
            <Array as="points">
              <mxPoint x="420" y="270" />
              <mxPoint x="420" y="270" />
            </Array>
          </mxGeometry>
        </mxCell>
        <mxCell id="221bUUAiKaxn2Sf912eD-23" value="" style="edgeStyle=orthogonalEdgeStyle;rounded=0;orthogonalLoop=1;jettySize=auto;html=1;entryX=0.25;entryY=0;entryDx=0;entryDy=0;" edge="1" parent="1">
          <mxGeometry relative="1" as="geometry">
            <mxPoint x="300" y="285" as="sourcePoint" />
            <mxPoint x="300" y="360" as="targetPoint" />
            <Array as="points" />
          </mxGeometry>
        </mxCell>
        <mxCell id="221bUUAiKaxn2Sf912eD-24" value="" style="edgeStyle=orthogonalEdgeStyle;rounded=0;orthogonalLoop=1;jettySize=auto;html=1;entryX=0.25;entryY=0;entryDx=0;entryDy=0;" edge="1" parent="1">
          <mxGeometry relative="1" as="geometry">
            <mxPoint x="340" y="360" as="sourcePoint" />
            <mxPoint x="340" y="285" as="targetPoint" />
            <Array as="points" />
          </mxGeometry>
        </mxCell>
      </root>
    </mxGraphModel>
  </diagram>
</mxfile>
